<?xml version="1.0" encoding="utf-8"?>
<!-- Generator: Adobe Illustrator 25.0.0, SVG Export Plug-In . SVG Version: 6.00 Build 0)  -->
<svg version="1.1" id="Capa_1" xmlns="http://www.w3.org/2000/svg" xmlns:xlink="http://www.w3.org/1999/xlink" x="0px" y="0px"
	 viewBox="0 0 496.1 534" style="enable-background:new 0 0 496.1 534;" xml:space="preserve">
<style type="text/css">
	.st0{fill:none;stroke:#7D4E24;stroke-width:3;stroke-miterlimit:10;}
	.st1{clip-path:url(#SVGID_2_);fill:#FCEA10;}
	.st2{clip-path:url(#SVGID_4_);fill:#36A9E1;}
	.st3{clip-path:url(#SVGID_6_);fill:none;}
	.st4{clip-path:url(#SVGID_8_);fill:#FFFFFF;}
	.st5{clip-path:url(#SVGID_10_);fill:#36A9E1;}
	.st6{clip-path:url(#SVGID_12_);fill:#FFFFFF;}
	.st7{clip-path:url(#SVGID_14_);fill:#FCEA10;}
	.st8{clip-path:url(#SVGID_16_);fill:#36A9E1;}
	.st9{clip-path:url(#SVGID_18_);fill:#FCEA10;}
	.st10{clip-path:url(#SVGID_20_);fill:#FFFFFF;}
	.st11{clip-path:url(#SVGID_22_);fill:#36A9E1;}
	.st12{clip-path:url(#SVGID_24_);fill:#FCEA10;}
	.st13{clip-path:url(#SVGID_26_);fill:#36A9E1;}
	.st14{clip-path:url(#SVGID_28_);fill:#FCEA10;}
	.st15{clip-path:url(#SVGID_30_);fill:#FFFFFF;}
	.st16{clip-path:url(#SVGID_32_);fill:#FCEA10;}
	.st17{clip-path:url(#SVGID_34_);fill:#FFFFFF;}
	.st18{clip-path:url(#SVGID_36_);fill:#36A9E1;}
	.st19{clip-path:url(#SVGID_38_);fill:#FCEA10;}
	.st20{clip-path:url(#SVGID_40_);fill:#FFFFFF;}
	.st21{clip-path:url(#SVGID_42_);fill:#36A9E1;}
	.st22{clip-path:url(#SVGID_44_);fill:#FFFFFF;}
	.st23{fill:#CA9E67;stroke:#000000;stroke-width:5;stroke-miterlimit:10;}
	.st24{stroke:#000000;stroke-width:5;stroke-miterlimit:10;}
	.st25{fill:none;stroke:#000000;stroke-width:3;stroke-miterlimit:10;}
	.st26{fill:#3AAA35;stroke:#000000;stroke-width:5;stroke-miterlimit:10;}
	.st27{fill:#95C11F;stroke:#000000;stroke-width:5;stroke-miterlimit:10;}
	.st28{fill:none;stroke:#000000;stroke-width:5;stroke-miterlimit:10;}
	.st29{fill:#BE1622;stroke:#BE1622;stroke-width:3;stroke-miterlimit:10;}
	.st30{fill:#B17F4A;stroke:#000000;stroke-width:4;stroke-miterlimit:10;}
	.st31{stroke:#000000;stroke-miterlimit:10;}
	.st32{fill:#FFFFFF;stroke:#000000;stroke-width:3;stroke-miterlimit:10;}
	.st33{opacity:0.5;fill:#FFFFFF;stroke:#FFFFFF;stroke-width:3;stroke-miterlimit:10;enable-background:new    ;}
</style>
<g>
	<line class="st0" x1="254" y1="203.2" x2="304" y2="203.2"/>
	<g>
		<g>
			<g>
				<g>
					<defs>
						<circle id="SVGID_1_" cx="245.8" cy="287.5" r="238.4"/>
					</defs>
					<clipPath id="SVGID_2_">
						<use xlink:href="#SVGID_1_"  style="overflow:visible;"/>
					</clipPath>
					<path class="st1" d="M389.8,596.6c-19.3-11.2-40.4-26.7-59.7-48.3c-78.1-87.5-65.4-205.2-61.7-232.5
						c7,37.6,28.9,123.9,104.5,187.9c20.4,17.3,41,29.8,59.8,39"/>
				</g>
			</g>
		</g>
		<g>
			<g>
				<g>
					<defs>
						<circle id="SVGID_3_" cx="245.8" cy="287.5" r="238.4"/>
					</defs>
					<clipPath id="SVGID_4_">
						<use xlink:href="#SVGID_3_"  style="overflow:visible;"/>
					</clipPath>
					<path class="st2" d="M463.8,551c-21.7-5.4-46.2-14.5-70.7-30c-99.2-62.5-119.4-179.2-123.4-206.5
						c17.1,34.2,62,111.1,152.2,151.8c24.4,11,47.6,17.3,68.2,21"/>
				</g>
			</g>
		</g>
		<g>
			<g>
				<g>
					<defs>
						<circle id="SVGID_5_" cx="245.8" cy="287.5" r="238.4"/>
					</defs>
					<clipPath id="SVGID_6_">
						<use xlink:href="#SVGID_5_"  style="overflow:visible;"/>
					</clipPath>
					<circle class="st3" cx="246.3" cy="289.2" r="238.4"/>
				</g>
			</g>
		</g>
		<g>
			<g>
				<g>
					<defs>
						<circle id="SVGID_7_" cx="245.8" cy="287.5" r="238.4"/>
					</defs>
					<clipPath id="SVGID_8_">
						<use xlink:href="#SVGID_7_"  style="overflow:visible;"/>
					</clipPath>
					<path class="st4" d="M261.4,563c-12.1-18.7-23.9-42.1-31.3-70.1c-29.9-113.4,34.9-212.5,50.6-235.2
						c-10.8,36.7-30.5,123.6,7.8,214.8c10.3,24.6,23,45.2,35.5,61.9"/>
				</g>
			</g>
		</g>
		<g>
			<g>
				<g>
					<defs>
						<circle id="SVGID_9_" cx="245.8" cy="287.5" r="238.4"/>
					</defs>
					<clipPath id="SVGID_10_">
						<use xlink:href="#SVGID_9_"  style="overflow:visible;"/>
					</clipPath>
					<path class="st5" d="M174.5,539.3c-6.1-21.5-10.5-47.2-9.4-76.2c4.6-117.2,95.5-193,117.1-210.1
						c-21.1,32-65.3,109.2-55.4,207.7c2.7,26.6,8.8,49.9,15.9,69.5"/>
				</g>
			</g>
		</g>
		<g>
			<g>
				<g>
					<defs>
						<circle id="SVGID_11_" cx="245.8" cy="287.5" r="238.4"/>
					</defs>
					<clipPath id="SVGID_12_">
						<use xlink:href="#SVGID_11_"  style="overflow:visible;"/>
					</clipPath>
					<path class="st6" d="M139.7-9c19.3,11.2,40.4,26.7,59.7,48.3c78.1,87.4,65.4,205.2,61.7,232.5c-7-37.6-28.9-123.9-104.5-187.9
						c-20.4-17.3-41-29.8-59.8-39"/>
				</g>
			</g>
		</g>
		<g>
			<g>
				<g>
					<defs>
						<circle id="SVGID_13_" cx="245.8" cy="287.5" r="238.4"/>
					</defs>
					<clipPath id="SVGID_14_">
						<use xlink:href="#SVGID_13_"  style="overflow:visible;"/>
					</clipPath>
					<path class="st7" d="M55.5,43.3c24.1,3.8,51,11.4,77.5,25.6c106.9,57.5,119.8,178.9,122,207.4c-16.5-34.7-60.6-112-159.3-147.2
						c-26.6-9.5-52.4-14.2-75.4-16.3"/>
				</g>
			</g>
		</g>
		<g>
			<g>
				<g>
					<defs>
						<circle id="SVGID_15_" cx="245.8" cy="287.5" r="238.4"/>
					</defs>
					<clipPath id="SVGID_16_">
						<use xlink:href="#SVGID_15_"  style="overflow:visible;"/>
					</clipPath>
					<path class="st8" d="M268.2,24.7c12.1,18.7,23.9,42.1,31.3,70.2c29.9,113.4-34.9,212.5-50.6,235.2
						c10.8-36.7,30.5-123.6-7.8-214.8c-10.3-24.6-23-45.2-35.5-61.9"/>
				</g>
			</g>
		</g>
		<g>
			<g>
				<g>
					<defs>
						<circle id="SVGID_17_" cx="245.8" cy="287.5" r="238.4"/>
					</defs>
					<clipPath id="SVGID_18_">
						<use xlink:href="#SVGID_17_"  style="overflow:visible;"/>
					</clipPath>
					<path class="st9" d="M355,48.4c6.1,21.5,10.5,47.3,9.4,76.2c-4.6,117.2-95.5,193-117.1,210.1c21.1-32,65.3-109.2,55.4-207.7
						c-2.7-26.6-8.8-49.9-15.9-69.6"/>
				</g>
			</g>
		</g>
		<g>
			<g>
				<g>
					<defs>
						<circle id="SVGID_19_" cx="245.8" cy="287.5" r="238.4"/>
					</defs>
					<clipPath id="SVGID_20_">
						<use xlink:href="#SVGID_19_"  style="overflow:visible;"/>
					</clipPath>
					<path class="st10" d="M430.2,72.1c0.8,22.3-1.2,48.4-9.3,76.2c-32.8,112.6-139.4,164.2-164.5,175.6
						c28.2-25.9,89.8-90.2,104-188.2c3.8-26.4,3.5-50.6,1.4-71.3"/>
				</g>
			</g>
		</g>
		<g>
			<g>
				<g>
					<defs>
						<circle id="SVGID_21_" cx="245.8" cy="287.5" r="238.4"/>
					</defs>
					<clipPath id="SVGID_22_">
						<use xlink:href="#SVGID_21_"  style="overflow:visible;"/>
					</clipPath>
					<path class="st11" d="M492.5,137.1c-5.8,21.6-15.3,45.9-31.2,70.2C397.1,305.4,280,323.5,252.7,327.1
						c34.5-16.5,112.2-60,154.4-149.6c11.4-24.2,18.2-47.3,22.2-67.8"/>
				</g>
			</g>
		</g>
		<g>
			<g>
				<g>
					<defs>
						<circle id="SVGID_23_" cx="245.8" cy="287.5" r="238.4"/>
					</defs>
					<clipPath id="SVGID_24_">
						<use xlink:href="#SVGID_23_"  style="overflow:visible;"/>
					</clipPath>
					<path class="st12" d="M525.8,228.8c-12.5,18.5-29.4,38.4-52.3,56.2c-92.7,71.8-209.2,50.9-236.2,45.3
						c38-4.4,125.6-20.2,194.7-91.1c18.6-19.1,32.6-38.8,43-56.9"/>
				</g>
			</g>
		</g>
		<g>
			<g>
				<g>
					<defs>
						<circle id="SVGID_25_" cx="245.8" cy="287.5" r="238.4"/>
					</defs>
					<clipPath id="SVGID_26_">
						<use xlink:href="#SVGID_25_"  style="overflow:visible;"/>
					</clipPath>
					<path class="st13" d="M538,318c-17.3,14-39.4,28.1-66.5,38.4c-109.6,41.6-215-12.5-239.2-25.7c37.7,6.9,126.1,17.4,212.9-30.2
						c23.4-12.9,42.5-27.6,57.8-41.8"/>
				</g>
			</g>
		</g>
		<g>
			<g>
				<g>
					<defs>
						<circle id="SVGID_27_" cx="245.8" cy="287.5" r="238.4"/>
					</defs>
					<clipPath id="SVGID_28_">
						<use xlink:href="#SVGID_27_"  style="overflow:visible;"/>
					</clipPath>
					<path class="st14" d="M569,384.2c-19.7,10.5-44,20.1-72.6,25c-115.6,20-208.7-53.2-229.9-70.8c35.6,14,120.4,41.1,214.7,11
						c25.5-8.1,47-19,64.7-30"/>
				</g>
			</g>
		</g>
		<g>
			<g>
				<g>
					<defs>
						<circle id="SVGID_29_" cx="245.8" cy="287.5" r="238.4"/>
					</defs>
					<clipPath id="SVGID_30_">
						<use xlink:href="#SVGID_29_"  style="overflow:visible;"/>
					</clipPath>
					<path class="st15" d="M537.8,468.7c-21.9,4.2-48,6.4-76.8,2.7c-116.3-14.8-183.9-112-199.1-135c30,23.8,103.1,74.5,202.1,73.3
						c26.7-0.4,50.5-4.4,70.7-9.8"/>
				</g>
			</g>
		</g>
		<g>
			<g>
				<g>
					<defs>
						<circle id="SVGID_31_" cx="245.8" cy="287.5" r="238.4"/>
					</defs>
					<clipPath id="SVGID_32_">
						<use xlink:href="#SVGID_31_"  style="overflow:visible;"/>
					</clipPath>
					<path class="st16" d="M101.1,509.4c-0.8-22.3,1.2-48.4,9.3-76.2C143.2,320.6,249.7,269,274.8,257.6
						c-28.2,25.9-89.8,90.2-104,188.2c-3.8,26.4-3.5,50.6-1.4,71.3"/>
				</g>
			</g>
		</g>
		<g>
			<g>
				<g>
					<defs>
						<circle id="SVGID_33_" cx="245.8" cy="287.5" r="238.4"/>
					</defs>
					<clipPath id="SVGID_34_">
						<use xlink:href="#SVGID_33_"  style="overflow:visible;"/>
					</clipPath>
					<path class="st17" d="M37.6,447.7c5.6-22.1,15.1-47,30.9-71.7c64.2-100,182.9-117.3,210.6-120.7
						c-34.9,16.6-113.3,60.4-155.3,151.8c-11.3,24.7-17.9,48.4-21.8,69.4"/>
				</g>
			</g>
		</g>
		<g>
			<g>
				<g>
					<defs>
						<circle id="SVGID_35_" cx="245.8" cy="287.5" r="238.4"/>
					</defs>
					<clipPath id="SVGID_36_">
						<use xlink:href="#SVGID_35_"  style="overflow:visible;"/>
					</clipPath>
					<path class="st18" d="M-7.5,378.9C4,359.8,19.9,339,41.8,320c88.8-76.6,206.3-61.8,233.5-57.6
						c-37.8,6.4-124.4,26.8-189.7,101.2c-17.6,20.1-30.5,40.5-40,59.1"/>
				</g>
			</g>
		</g>
		<g>
			<g>
				<g>
					<defs>
						<circle id="SVGID_37_" cx="245.8" cy="287.5" r="238.4"/>
					</defs>
					<clipPath id="SVGID_38_">
						<use xlink:href="#SVGID_37_"  style="overflow:visible;"/>
					</clipPath>
					<path class="st19" d="M-27.1,292.5c16.8-15.4,38.2-31.2,65-43.3c108.3-48.9,217.3,1.2,242.4,13.5
						c-38.3-5.1-127.9-11.1-212.9,42.8C44.5,320,26,336.3,11.3,351.8"/>
				</g>
			</g>
		</g>
		<g>
			<g>
				<g>
					<defs>
						<circle id="SVGID_39_" cx="245.8" cy="287.5" r="238.4"/>
					</defs>
					<clipPath id="SVGID_40_">
						<use xlink:href="#SVGID_39_"  style="overflow:visible;"/>
					</clipPath>
					<path class="st20" d="M-21.7,206.1c20.2-9.4,45-17.8,73.8-21.2C168.5,171.1,257.7,249,278,267.7
						c-34.9-15.8-118.1-47.4-213.8-22.2C38.4,252.3,16.3,262-2,272.1"/>
				</g>
			</g>
		</g>
		<g>
			<g>
				<g>
					<defs>
						<circle id="SVGID_41_" cx="245.8" cy="287.5" r="238.4"/>
					</defs>
					<clipPath id="SVGID_42_">
						<use xlink:href="#SVGID_41_"  style="overflow:visible;"/>
					</clipPath>
					<path class="st21" d="M10.4,123.6c22.5-3.4,49.1-4.5,78.1,0.5C205.6,144.2,268,246.6,281.9,270.8
						C253,245.2,182,190.1,81.5,187.2c-27.1-0.8-51.5,2.4-72.4,7"/>
				</g>
			</g>
		</g>
		<g>
			<g>
				<g>
					<defs>
						<circle id="SVGID_43_" cx="245.8" cy="287.5" r="238.4"/>
					</defs>
					<clipPath id="SVGID_44_">
						<use xlink:href="#SVGID_43_"  style="overflow:visible;"/>
					</clipPath>
					<path class="st22" d="M544.8,277.3c-15.2,12-34.9,24.8-60.2,35.9c-102.4,44.5-214,24.2-239.7,19c38.1-1.1,126.9-7.5,205.9-52.5
						c21.3-12.2,38.1-25,51.2-36.8"/>
				</g>
			</g>
		</g>
	</g>
	<path class="st23" d="M192.7,164.4c-99.3,8.3-122.2,161.5-38.3,217.1c43.4,26,93.5,39.8,94,92.9c20.7-75.1,96.1-94.5,129.3-155
		C422.9,193.6,301.3,148.3,192.7,164.4z"/>
	<path class="st24" d="M186.7,318.3c2.9,5.3,10.8,17.6,26.4,25.5c10.5,5.4,20.2,6.5,26,6.7c4.4,0.3,20,0.7,34.3-10.2
		c10.3-7.8,14.9-17.5,16.6-22.1C255.6,318.3,221.2,318.3,186.7,318.3z"/>
	<circle class="st25" cx="248.1" cy="287.5" r="238.4"/>
	<path class="st26" d="M260.3,156.3L372,70.7c0.6-1.2,4.2-8.4,1-16.6c-2.6-6.8-8.9-11.6-16.4-12.7c-7.3,0.9-13.9,2.4-19.8,4.4
		c-59.1,19.4-83.2,87.4-89.4,107C251.7,153.9,256,155.1,260.3,156.3z"/>
	<path class="st26" d="M232,156.3L120.4,70.7c-0.6-1.2-4.2-8.4-1-16.6c2.6-6.8,8.9-11.6,16.4-12.7c7.3,0.9,13.9,2.4,19.8,4.4
		c59.1,19.4,83.2,87.4,89.4,107C240.6,153.9,236.4,155.1,232,156.3z"/>
	<path class="st26" d="M227.7,153.6L167.1,26.7c0-1.3,0.1-9.4,6.6-15.3c5.4-4.8,13.2-6.3,20.3-3.9c6.1,4.1,11.2,8.5,15.7,12.9
		c43.9,44.2,34.4,115.6,31.1,135.9C236.5,155.4,232.1,154.5,227.7,153.6z"/>
	<path class="st26" d="M267.7,151.9l69.4-122.4c0.1-1.3,0.5-9.4-5.6-15.7c-5.1-5.2-12.7-7.2-20-5.3c-6.3,3.6-11.8,7.7-16.5,11.8
		c-46.9,41-42.4,112.9-40.5,133.4C258.9,153.1,263.3,152.5,267.7,151.9z"/>
	<path class="st26" d="M232.8,17.3c1.7-1.6,6-5.2,12.5-6.3c10.9-1.7,18.8,5.2,20,6.3c0.6,8.1,1,16.5,1.2,25.1
		c0.8,41.7-4.5,79.2-12,111.3c-3.2,1.3-6.4,2.6-9.5,3.8l-4.1-1.2c-10.1-35.1-16.3-77.3-10.4-123.8C231.1,27.3,231.9,22.3,232.8,17.3
		z"/>
	<path class="st27" d="M194.1,7.5c5.8,8.6,2.9,20-5.1,24.5c-7,3.9-16.6,1.9-21.9-5.4c0-1.3,0.1-9.4,6.6-15.3
		C179.1,6.6,186.9,5.1,194.1,7.5z"/>
	<path class="st27" d="M337.1,29.5c-0.9,0.3-9.9,3-17.8-2.9c-8.9-6.6-7.8-17.6-7.8-18.1c7.3-1.9,15,0.1,20,5.3
		C337.6,20.1,337.2,28.2,337.1,29.5z"/>
	<path class="st28" d="M250.1,272.1c0.6-1.1,12.6-23,37.5-24.3c17.4-0.9,34,8.6,42.3,24.3"/>
	<path class="st29" d="M260.1,349.3c-1.4-1.6-10-11.8-23.3-11c-11.4,0.7-18.5,8.9-20.1,11"/>
	<path class="st30" d="M244.9,157.5c3.4-1.6,20.9-9.6,38.2-1.5c5.1,2.4,9,5.6,11.7,8.4c-33.6,0-67.2,0-100.8,0
		c0.6-1.4,1.4-2.6,2.3-3.7C208.2,146.2,240.8,156.2,244.9,157.5z"/>
	<path class="st31" d="M295.3,228.6c0.4-1.2,20.3-0.3,33.4,13.5c12.2,12.9,12.8,31.1,11.6,31.5c-1.1,0.4-3.2-14.8-16-28
		C310.9,231.9,294.9,229.7,295.3,228.6z"/>
	<path class="st32" d="M186.7,319.5c-1.4-2-3.1-5-4.2-8.9c-0.8-2.8-1-5.2-1.1-7.1c37.9,0,75.8,0,113.8,0c0.2,1.9,0.2,5.1-1.1,8.9
		c-1.2,3.4-3,5.8-4.1,7.1C255.6,319.5,221.2,319.5,186.7,319.5z"/>
	<path class="st28" d="M295.3,303.4c-4.7,27.5-28.5,47.9-56.2,48.3c-28.2,0.4-52.8-20.2-57.6-48.3H295.3z"/>
	<path class="st33" d="M163.3,192.1c-8.8-3.7-41.9,31.4-46.2,74.1c-5.4,55.2,39.3,105.1,48.5,101.3c6.7-2.7-8.2-32.5-7.8-92.7
		C158.3,221.7,170.3,195.1,163.3,192.1z"/>
	<path class="st28" d="M218.6,273.7c-6.1-17-22.5-28.2-40.2-27.5c-16.6,0.6-31.4,11.6-37.1,27.5"/>
	<path class="st31" d="M172.9,232.1c-0.4-1.2-20.3-0.3-33.4,13.5c-12.2,12.9-12.8,31.1-11.6,31.5c1.1,0.4,3.2-14.8,16-28
		C157.3,235.4,173.3,233.2,172.9,232.1z"/>
</g>
</svg>
